<svg width="10" height="11" viewBox="0 0 10 11" fill="none" xmlns="http://www.w3.org/2000/svg">
<path fill-rule="evenodd" clip-rule="evenodd" d="M8.17712 10.6224C7.99802 10.8015 7.75511 10.9022 7.50182 10.9022C7.24854 10.9022 7.00562 10.8015 6.82652 10.6224C6.64742 10.4433 6.5468 10.2004 6.5468 9.94714C6.5468 9.69385 6.64742 9.45094 6.82652 9.27184C7.00562 9.09273 7.24854 8.99212 7.50182 8.99212C7.75511 8.99212 7.99802 9.09273 8.17712 9.27184C8.35622 9.45094 8.45684 9.69385 8.45684 9.94714C8.45684 10.2004 8.35622 10.4433 8.17712 10.6224ZM3.47262 10.3126C3.52062 10.1967 3.54532 10.0726 3.54532 9.94714C3.54532 9.69385 3.4447 9.45094 3.2656 9.27184C3.0865 9.09273 2.84359 8.99212 2.5903 8.99212C2.33701 8.99212 2.0941 9.09273 1.915 9.27184C1.7359 9.45094 1.63528 9.69385 1.63528 9.94714C1.63528 10.0726 1.65998 10.1967 1.70798 10.3126C1.75597 10.4285 1.82632 10.5338 1.915 10.6224C2.00368 10.7111 2.10896 10.7815 2.22483 10.8295C2.3407 10.8775 2.46488 10.9022 2.5903 10.9022C2.71571 10.9022 2.8399 10.8775 2.95577 10.8295C3.07164 10.7815 3.17692 10.7111 3.2656 10.6224C3.35428 10.5338 3.42463 10.4285 3.47262 10.3126Z" fill="white"/>
<path d="M2.60012 4.527L2.80586 5.30847L3.45254 7.76696C3.51373 7.99961 3.62543 8.21592 3.77971 8.4005C3.93398 8.58508 4.12703 8.73339 4.34513 8.83488C4.56324 8.93638 4.80102 8.98857 5.04158 8.98773C5.28214 8.98689 5.51956 8.93305 5.73695 8.83004L8.20253 7.66219C8.48267 7.52952 8.71938 7.32006 8.88516 7.05816C9.05094 6.79626 9.13896 6.49268 9.139 6.18273V5.58134V3.39844H8.32041V4.52454C8.32041 4.52454 7.52711 4.527 7.43426 4.527L3.43945 4.48989L3.35759 4.19792C3.2938 3.96813 3.1565 3.76556 2.96669 3.62119C2.77688 3.47681 2.545 3.39857 2.30652 3.39844H1.36242C1.25387 3.39844 1.14976 3.44156 1.073 3.51832C0.996247 3.59507 0.953125 3.69918 0.953125 3.80773C0.953125 3.91628 0.996247 4.02039 1.073 4.09715C1.14976 4.1739 1.25387 4.21702 1.36242 4.21702H2.30652C2.36617 4.21699 2.42419 4.2365 2.47169 4.27257C2.5192 4.30865 2.55358 4.35929 2.56956 4.41676L2.60012 4.527Z" fill="white"/>
<path d="M8.5992 2.28382C8.47609 2.07886 8.25923 1.89858 8.02338 1.93674C7.59157 2.00732 7.1421 2.93475 7.23875 3.097C7.3367 3.26281 8.35513 3.30582 8.63065 2.95803C8.77361 2.77873 8.71827 2.49527 8.59678 2.29013L8.5992 2.28382Z" fill="#06C445"/>
<path d="M8.5992 2.28382C8.47609 2.07886 8.25923 1.89858 8.02338 1.93674C7.59157 2.00732 7.1421 2.93475 7.23875 3.097C7.3367 3.26281 8.35513 3.30582 8.63065 2.95803C8.77361 2.77873 8.71827 2.49527 8.59678 2.29013L8.5992 2.28382Z" fill="#03CD46"/>
<path d="M6.72023 0.602218C7.05524 0.597896 7.43003 0.722599 7.55854 1.0324C7.79311 1.59974 7.01909 2.819 6.75409 2.82278C6.48939 2.8276 5.68411 1.64397 5.89575 1.0567C6.00445 0.752979 6.38563 0.606985 6.7202 0.601105L6.72023 0.602218Z" fill="#06C445"/>
<path d="M4.24129 7.96259C4.6176 8.17162 7.58065 5.50166 7.76804 4.40569C7.83783 3.99706 7.36489 3.47614 6.89065 3.20985L6.89047 3.21259L6.88984 3.2094L6.89065 3.20985L6.89074 3.20858C6.41581 2.94788 5.72282 2.81654 5.41113 3.09041C4.57832 3.82653 3.86609 7.75352 4.24129 7.96259Z" fill="#FF8F07"/>
</svg>
