<svg width="78" height="15" viewBox="0 0 78 15" fill="none" xmlns="http://www.w3.org/2000/svg">
<path d="M12.4639 6.19285H13.6448V9.40041C13.6448 9.66367 13.6808 9.89837 13.7529 10.1045C13.8249 10.3082 13.9317 10.4808 14.0732 10.6223C14.2173 10.7639 14.3949 10.8719 14.606 10.9464C14.8171 11.0185 15.0629 11.0545 15.3436 11.0545C15.6218 11.0545 15.8664 11.0185 16.0775 10.9464C16.2911 10.8719 16.4687 10.7639 16.6102 10.6223C16.7543 10.4808 16.8623 10.3082 16.9343 10.1045C17.0064 9.89837 17.0424 9.66367 17.0424 9.40041V6.19285H18.2233V9.54197C18.2233 9.92444 18.1587 10.2721 18.0296 10.5851C17.9004 10.898 17.7129 11.1662 17.4671 11.3898C17.2212 11.6133 16.9194 11.7859 16.5618 11.9076C16.2066 12.0293 15.8006 12.0901 15.3436 12.0901C14.8866 12.0901 14.4793 12.0293 14.1217 11.9076C13.7665 11.7859 13.466 11.6133 13.2201 11.3898C12.9742 11.1662 12.7867 10.898 12.6576 10.5851C12.5284 10.2721 12.4639 9.92444 12.4639 9.54197V6.19285ZM19.665 6.19285H22.6267C23.0738 6.19285 23.4612 6.24004 23.789 6.33441C24.1169 6.42631 24.3888 6.56042 24.6049 6.73676C24.821 6.91309 24.9812 7.12792 25.0855 7.38125C25.1923 7.63457 25.2457 7.92143 25.2457 8.24181C25.2457 8.45788 25.2196 8.66402 25.1674 8.86022C25.1153 9.05394 25.0346 9.23276 24.9253 9.39668C24.8185 9.5606 24.6831 9.70713 24.5192 9.83628C24.3553 9.96294 24.1628 10.0685 23.9418 10.1529L25.2084 12.0156H23.763L22.6677 10.3616H22.6342L20.846 10.3578V12.0156H19.665V6.19285ZM22.6565 9.33707C22.88 9.33707 23.075 9.311 23.2414 9.25884C23.4103 9.20669 23.5506 9.13342 23.6624 9.03904C23.7766 8.94467 23.8611 8.83042 23.9157 8.69631C23.9728 8.55971 24.0014 8.40821 24.0014 8.24181C24.0014 7.91646 23.8896 7.66562 23.6661 7.48928C23.4426 7.31047 23.106 7.22106 22.6565 7.22106H20.846V9.33707H22.6565ZM26.6464 6.19285H29.7571C30.1371 6.19285 30.4674 6.23383 30.7481 6.31579C31.0312 6.39526 31.2659 6.50578 31.4522 6.64735C31.6384 6.78891 31.7763 6.9578 31.8657 7.154C31.9576 7.34772 32.0035 7.55758 32.0035 7.78359C32.0035 8.15364 31.8868 8.47775 31.6533 8.75591C31.9216 8.91486 32.1215 9.121 32.2531 9.37433C32.3847 9.62765 32.4506 9.91575 32.4506 10.2386C32.4506 10.5093 32.4046 10.754 32.3127 10.9725C32.2233 11.1911 32.0855 11.3786 31.8992 11.5351C31.7154 11.689 31.482 11.8082 31.1988 11.8927C30.9182 11.9746 30.5866 12.0156 30.2041 12.0156H26.6464V6.19285ZM30.2116 8.42808C30.3134 8.42808 30.4128 8.43181 30.5096 8.43926C30.676 8.28031 30.7592 8.099 30.7592 7.89535C30.7592 7.68425 30.676 7.52157 30.5096 7.40733C30.3457 7.2906 30.1048 7.23223 29.7869 7.23223H27.8274V8.42808H30.2116ZM30.234 10.9874C30.5519 10.9874 30.7928 10.9191 30.9567 10.7825C31.1231 10.6459 31.2063 10.4534 31.2063 10.2051C31.2063 9.95673 31.1231 9.76301 30.9567 9.62393C30.7928 9.48485 30.5519 9.41531 30.234 9.41531H27.8274V10.9874H30.234ZM35.6358 6.19285H36.8875L39.7039 12.0156H38.4633L37.9977 11.0358H34.5964L34.1456 12.0156H32.9013L35.6358 6.19285ZM37.532 10.0635L36.2728 7.4185L35.0471 10.0635H37.532ZM40.6017 6.19285H41.7826L45.4112 8.0928V6.19285H46.5921V12.0156H45.4112V9.34452L41.7826 7.45576V12.0156H40.6017V6.19285ZM50.4181 9.06885C50.4181 8.65409 50.4963 8.26789 50.6528 7.91025C50.8092 7.55013 51.0353 7.23844 51.3308 6.97518C51.6288 6.70944 51.9914 6.50082 52.4186 6.34932C52.8483 6.19782 53.3338 6.12207 53.8752 6.12207C54.3496 6.12207 54.7842 6.1705 55.1791 6.26736C55.5765 6.36173 55.9453 6.50702 56.2856 6.70323L55.7417 7.59732C55.6398 7.53026 55.5219 7.47066 55.3877 7.4185C55.2561 7.36635 55.1145 7.32288 54.963 7.28811C54.814 7.25086 54.6588 7.2223 54.4974 7.20243C54.3384 7.18256 54.1807 7.17263 54.0243 7.17263C53.6467 7.17263 53.3102 7.21981 53.0147 7.31419C52.7191 7.40608 52.4695 7.53647 52.2659 7.70536C52.0647 7.87176 51.9107 8.07169 51.8039 8.30514C51.6996 8.53612 51.6475 8.79068 51.6475 9.06885C51.6475 9.35694 51.7021 9.62144 51.8114 9.86235C51.9207 10.1033 52.0784 10.3119 52.2845 10.4882C52.4931 10.6621 52.7464 10.7987 53.0445 10.898C53.345 10.9949 53.684 11.0433 54.0615 11.0433C54.2329 11.0433 54.403 11.0309 54.5719 11.006C54.7408 10.9812 54.9034 10.9477 55.0599 10.9055C55.2189 10.8608 55.3716 10.8086 55.5181 10.749C55.6647 10.6869 55.8013 10.6198 55.9279 10.5478L56.4718 11.4419C56.1539 11.6456 55.7864 11.8058 55.3691 11.9225C54.9519 12.0367 54.5086 12.0939 54.0392 12.0939C53.4406 12.0939 52.9153 12.0169 52.4633 11.8629C52.0113 11.7064 51.6338 11.4928 51.3308 11.2221C51.0278 10.9489 50.7993 10.6285 50.6453 10.261C50.4938 9.89091 50.4181 9.49354 50.4181 9.06885ZM59.7613 6.19285H61.0131L63.8295 12.0156H62.5889L62.1232 11.0358H58.722L58.2712 12.0156H57.0269L59.7613 6.19285ZM61.6576 10.0635L60.3984 7.4185L59.1727 10.0635H61.6576ZM64.7347 6.19285H67.6964C68.1435 6.19285 68.5309 6.24004 68.8587 6.33441C69.1866 6.42631 69.4585 6.56042 69.6746 6.73676C69.8907 6.91309 70.0509 7.12792 70.1552 7.38125C70.262 7.63457 70.3154 7.92143 70.3154 8.24181C70.3154 8.45788 70.2893 8.66402 70.2371 8.86022C70.185 9.05394 70.1043 9.23276 69.995 9.39668C69.8882 9.5606 69.7528 9.70713 69.5889 9.83628C69.425 9.96294 69.2325 10.0685 69.0115 10.1529L70.2781 12.0156H68.8327L67.7374 10.3616H67.7039L65.9157 10.3578V12.0156H64.7347V6.19285ZM67.7262 9.33707C67.9497 9.33707 68.1447 9.311 68.3111 9.25884C68.48 9.20669 68.6203 9.13342 68.7321 9.03904C68.8463 8.94467 68.9308 8.83042 68.9854 8.69631C69.0425 8.55971 69.0711 8.40821 69.0711 8.24181C69.0711 7.91646 68.9593 7.66562 68.7358 7.48928C68.5123 7.31047 68.1757 7.22106 67.7262 7.22106H65.9157V9.33707H67.7262ZM73.4708 7.22851H71.3212V6.19285H76.8012V7.22851H74.6517V12.0156H73.4708V7.22851Z" fill="white"/>
<path fill-rule="evenodd" clip-rule="evenodd" d="M8.8386 13.1355C8.62605 13.348 8.33778 13.4674 8.0372 13.4674C7.73661 13.4674 7.44834 13.348 7.23579 13.1355C7.02325 12.9229 6.90384 12.6347 6.90384 12.3341C6.90384 12.0335 7.02325 11.7452 7.23579 11.5327C7.44834 11.3201 7.73661 11.2007 8.0372 11.2007C8.33778 11.2007 8.62605 11.3201 8.8386 11.5327C9.05114 11.7452 9.17055 12.0335 9.17055 12.3341C9.17055 12.6347 9.05114 12.9229 8.8386 13.1355ZM3.2556 12.7678C3.31256 12.6303 3.34187 12.4829 3.34187 12.3341C3.34187 12.0335 3.22247 11.7452 3.00992 11.5327C2.79737 11.3201 2.5091 11.2007 2.20852 11.2007C1.90793 11.2007 1.61966 11.3201 1.40712 11.5327C1.19457 11.7452 1.07516 12.0335 1.07516 12.3341C1.07516 12.4829 1.10448 12.6303 1.16144 12.7678C1.21839 12.9053 1.30187 13.0302 1.40712 13.1355C1.51236 13.2407 1.6373 13.3242 1.7748 13.3812C1.91231 13.4381 2.05968 13.4674 2.20852 13.4674C2.35735 13.4674 2.50473 13.4381 2.64223 13.3812C2.77974 13.3242 2.90468 13.2407 3.00992 13.1355C3.11516 13.0302 3.19864 12.9053 3.2556 12.7678Z" fill="white"/>
<path d="M2.22018 5.9018L2.46433 6.82921L3.23177 9.74679C3.30438 10.0229 3.43695 10.2796 3.62003 10.4986C3.80311 10.7177 4.03221 10.8937 4.29104 11.0141C4.54987 11.1346 4.83206 11.1965 5.11754 11.1955C5.40302 11.1945 5.68477 11.1306 5.94276 11.0084L8.86875 9.62244C9.2012 9.46501 9.48212 9.21643 9.67885 8.90563C9.87559 8.59482 9.98005 8.23455 9.98009 7.86671V7.15302V4.5625H9.00864V5.89889C9.00864 5.89889 8.06721 5.9018 7.95702 5.9018L3.21623 5.85776L3.11909 5.51128C3.04338 5.23858 2.88044 4.99818 2.65519 4.82684C2.42993 4.6555 2.15476 4.56266 1.87175 4.5625H0.751348C0.622526 4.5625 0.498981 4.61367 0.40789 4.70477C0.316799 4.79586 0.265625 4.9194 0.265625 5.04822C0.265625 5.17704 0.316799 5.30059 0.40789 5.39168C0.498981 5.48277 0.622526 5.53395 0.751348 5.53395H1.87175C1.94254 5.53391 2.01139 5.55706 2.06776 5.59987C2.12414 5.64268 2.16494 5.70278 2.18391 5.77098L2.22018 5.9018Z" fill="white"/>
<path d="M9.3421 3.24632C9.196 3.00308 8.93865 2.78914 8.65875 2.83442C8.1463 2.91818 7.6129 4.01879 7.72761 4.21134C7.84384 4.40811 9.05245 4.45915 9.37942 4.04642C9.54907 3.83364 9.4834 3.49725 9.33923 3.2538L9.3421 3.24632Z" fill="#06C445"/>
<path d="M9.3421 3.24632C9.196 3.00308 8.93865 2.78914 8.65875 2.83442C8.1463 2.91818 7.6129 4.01879 7.72761 4.21134C7.84384 4.40811 9.05245 4.45915 9.37942 4.04642C9.54907 3.83364 9.4834 3.49725 9.33923 3.2538L9.3421 3.24632Z" fill="#03CD46"/>
<path d="M7.11226 1.2507C7.50983 1.24557 7.9546 1.39356 8.10711 1.76121C8.38548 2.43449 7.46693 3.88144 7.15244 3.88592C6.83831 3.89164 5.88266 2.48698 6.13382 1.79005C6.26282 1.42961 6.71517 1.25635 7.11222 1.24938L7.11226 1.2507Z" fill="#06C445"/>
<path d="M4.17041 9.98551C4.617 10.2336 8.13335 7.06504 8.35574 5.76441C8.43856 5.27948 7.8773 4.66128 7.3145 4.34527L7.31429 4.34851L7.31355 4.34473L7.3145 4.34527L7.3146 4.34376C6.75099 4.03438 5.9286 3.87852 5.5587 4.20353C4.57037 5.0771 3.72515 9.7374 4.17041 9.98551Z" fill="#FF8F07"/>
</svg>
