<svg width="12" height="15" viewBox="0 0 12 15" fill="none" xmlns="http://www.w3.org/2000/svg">
<path d="M11.8754 4.84719C11.7069 4.39003 11.3414 3.94664 10.8547 3.9333C9.96339 3.91032 8.71078 5.59597 8.84255 5.95755C8.97555 6.32675 10.998 6.80028 11.6819 6.20886C12.0363 5.9043 12.0333 5.31579 11.8682 4.85889L11.8754 4.84719Z" fill="#06C445"/>
<path d="M11.8754 4.84719C11.7069 4.39003 11.3414 3.94664 10.8547 3.9333C9.96339 3.91032 8.71078 5.59597 8.84255 5.95755C8.97555 6.32675 10.998 6.80028 11.6819 6.20886C12.0363 5.9043 12.0333 5.31579 11.8682 4.85889L11.8754 4.84719Z" fill="#03CD46"/>
<path d="M8.75358 0.76596C9.42589 0.884753 10.1287 1.27697 10.2681 1.94606C10.5219 3.17105 8.50856 5.31747 7.97662 5.22423C7.44487 5.13317 6.28305 2.4573 6.93014 1.36214C7.2633 0.795474 8.08192 0.648213 8.75393 0.763719L8.75358 0.76596Z" fill="#06C445"/>
<path d="M0.990918 14.5578C1.66474 15.1194 8.61221 10.9015 9.40429 8.7788C9.69945 7.98731 8.95083 6.76455 8.10275 6.05105L8.10135 6.05646L8.10131 6.04983L8.10275 6.05105L8.1034 6.04854C7.25182 5.34597 5.91448 4.81942 5.18631 5.24911C3.23905 6.40593 0.319335 13.9965 0.990918 14.5578Z" fill="#FF8F07"/>
</svg>
